<?xml version="1.0" encoding="UTF-8"?>
<!DOCTYPE svg PUBLIC "-//W3C//DTD SVG 1.1//EN" "http://www.w3.org/Graphics/SVG/1.1/DTD/svg11.dtd">
<!-- Creator: CorelDRAW -->
<svg xmlns="http://www.w3.org/2000/svg" xml:space="preserve" width="23.9413mm" height="23.7829mm" version="1.1" style="shape-rendering:geometricPrecision; text-rendering:geometricPrecision; image-rendering:optimizeQuality; fill-rule:evenodd; clip-rule:evenodd"
viewBox="0 0 202.11 200.77"
 xmlns:xlink="http://www.w3.org/1999/xlink"
 xmlns:xodm="http://www.corel.com/coreldraw/odm/2003">
 <defs>
  <style type="text/css">
   <![CDATA[
    .fil0 {fill:#E8360E}
    .fil1 {fill:#F7B716}
   ]]>
  </style>
 </defs>
 <g id="Layer_x0020_1">
  <metadata id="CorelCorpID_0Corel-Layer"/>
  <g id="_105553157317792">
   <path class="fil0" d="M193.64 63.65c-7.16,16.23 13,53.32 -53.8,73.28 -15.36,4.59 -31.79,11.18 -48.22,15.42 -8.87,2.29 -15.02,5.69 -20.75,10.15 -3.3,2.57 -5.98,4.88 -9.03,7.36 -0.59,0.48 -4.15,3.55 -4.44,3.72 -5.02,2.96 -1.52,2.05 -3.59,0.3 -5.02,-5.4 -1.6,-49.66 0.03,-59.48 2.67,-16.08 6.15,-37.14 11.93,-51.53 10.87,-27.05 36.12,-52.98 74.12,-52.6 -3.54,-5.52 2.62,-1.27 -14.84,-6.69 -5.13,-1.59 -11.58,-3.16 -17.73,-3.46 -108.91,-5.22 -148.53,135.66 -54.32,187.92 44.22,24.53 95.19,11.92 125.52,-23.82 21.86,-25.76 26.61,-50.35 21.99,-84.59 -1.46,-10.83 -1.17,-9.31 -6.86,-16l0 -0z"/>
   <path class="fil1" d="M193.64 63.65c-2.59,-10.95 -12.77,-26.51 -19.92,-33.8 -4.89,-4.98 -8.39,-8.34 -14.34,-11.73 -4.92,-2.81 -13.02,-7.89 -19.51,-7.84 -38,-0.38 -63.25,25.55 -74.12,52.6 -5.78,14.39 -9.26,35.45 -11.93,51.53 -1.63,9.82 -5.05,54.08 -0.03,59.48 2.07,1.75 -1.42,2.65 3.59,-0.3 0.29,-0.17 3.85,-3.24 4.44,-3.72 3.06,-2.48 5.73,-4.79 9.03,-7.36 5.74,-4.47 11.89,-7.87 20.75,-10.15 16.43,-4.24 32.86,-10.83 48.22,-15.42 66.8,-19.96 46.64,-57.05 53.8,-73.28l0 0z"/>
  </g>
 </g>
</svg>
